<mxfile host="app.diagrams.net" modified="2023-11-15T08:39:14.968Z" agent="Mozilla/5.0 (Windows NT 10.0; Win64; x64) AppleWebKit/537.36 (KHTML, like Gecko) Chrome/119.0.0.0 Safari/537.36" etag="e4delWs1n7c0U1m5nfY1" version="22.1.1" type="github">
  <diagram name="Page-1" id="7HnCP33ddaRD0rec6pW0">
    <mxGraphModel dx="1050" dy="638" grid="1" gridSize="10" guides="1" tooltips="1" connect="1" arrows="1" fold="1" page="1" pageScale="1" pageWidth="850" pageHeight="1100" math="0" shadow="0">
      <root>
        <mxCell id="0" />
        <mxCell id="1" parent="0" />
        <mxCell id="JmXkQyWFA_XHJxAdcba5-1" value="MSD" style="html=1;overflow=block;blockSpacing=1;whiteSpace=wrap;rounded=1;arcSize=35;fontSize=16.7;fontColor=#3a414a;spacing=3.8;strokeColor=#3a414a;strokeOpacity=100;fillOpacity=100;fillColor=#cfe4ff;strokeWidth=0.8;lucidId=_zfvtoaLD8R3;" vertex="1" parent="1">
          <mxGeometry x="217" y="201" width="120" height="60" as="geometry" />
        </mxCell>
        <mxCell id="JmXkQyWFA_XHJxAdcba5-2" style="edgeStyle=orthogonalEdgeStyle;rounded=0;orthogonalLoop=1;jettySize=auto;html=1;" edge="1" parent="1" source="JmXkQyWFA_XHJxAdcba5-3" target="JmXkQyWFA_XHJxAdcba5-6">
          <mxGeometry relative="1" as="geometry" />
        </mxCell>
        <mxCell id="JmXkQyWFA_XHJxAdcba5-3" value="Informatica Cloud Application Integration" style="html=1;overflow=block;blockSpacing=1;whiteSpace=wrap;shape=process;fontSize=13;fontColor=#3a414a;spacing=3.8;strokeColor=#3a414a;strokeOpacity=100;fillOpacity=100;rounded=1;absoluteArcSize=1;arcSize=9;fillColor=#b8f5ed;strokeWidth=0.8;lucidId=kAfvMmEvo7Zt;" vertex="1" parent="1">
          <mxGeometry x="496" y="186" width="108" height="90" as="geometry" />
        </mxCell>
        <mxCell id="JmXkQyWFA_XHJxAdcba5-4" style="edgeStyle=orthogonalEdgeStyle;rounded=0;orthogonalLoop=1;jettySize=auto;html=1;entryX=0.5;entryY=0;entryDx=0;entryDy=0;" edge="1" parent="1" source="JmXkQyWFA_XHJxAdcba5-6">
          <mxGeometry relative="1" as="geometry">
            <mxPoint x="967" y="232" as="sourcePoint" />
            <mxPoint x="1027" y="251" as="targetPoint" />
            <Array as="points">
              <mxPoint x="946" y="231" />
              <mxPoint x="1027" y="230" />
            </Array>
          </mxGeometry>
        </mxCell>
        <mxCell id="JmXkQyWFA_XHJxAdcba5-5" value="Once Merge Complete" style="edgeLabel;html=1;align=center;verticalAlign=middle;resizable=0;points=[];" vertex="1" connectable="0" parent="JmXkQyWFA_XHJxAdcba5-4">
          <mxGeometry x="0.1075" y="1" relative="1" as="geometry">
            <mxPoint as="offset" />
          </mxGeometry>
        </mxCell>
        <mxCell id="JmXkQyWFA_XHJxAdcba5-6" value="Informatica C360 SaaS" style="html=1;overflow=block;blockSpacing=1;whiteSpace=wrap;fontSize=16.7;fontColor=#3a414a;spacing=9;strokeColor=#3a414a;strokeOpacity=100;fillOpacity=100;rounded=1;absoluteArcSize=1;arcSize=9;fillColor=#ffdda6;strokeWidth=0.8;lucidId=FAfvqJk8E.Ea;" vertex="1" parent="1">
          <mxGeometry x="670" y="186" width="195" height="90" as="geometry" />
        </mxCell>
        <mxCell id="JmXkQyWFA_XHJxAdcba5-7" value="" style="html=1;jettySize=18;whiteSpace=wrap;fontSize=13;strokeColor=#3a414a;strokeOpacity=100;strokeWidth=0.8;rounded=1;arcSize=12;edgeStyle=orthogonalEdgeStyle;startArrow=none;endArrow=block;endFill=1;exitX=1.003;exitY=0.5;exitPerimeter=0;lucidId=RAfvrp491s3M;" edge="1" parent="1" source="JmXkQyWFA_XHJxAdcba5-1" target="JmXkQyWFA_XHJxAdcba5-33">
          <mxGeometry width="100" height="100" relative="1" as="geometry">
            <Array as="points" />
          </mxGeometry>
        </mxCell>
        <mxCell id="JmXkQyWFA_XHJxAdcba5-8" value="&lt;font style=&quot;font-size: 11px;&quot;&gt;Attributes to publish&lt;/font&gt;" style="html=1;overflow=block;blockSpacing=1;whiteSpace=wrap;shape=mxgraph.aws4.attributes;verticalLabelPosition=bottom;align=center;verticalAlign=top;pointerEvents=1;fontSize=16.7;fontColor=#3a414a;spacing=0;strokeColor=#3a414a;strokeOpacity=100;rounded=1;absoluteArcSize=1;arcSize=9;fillColor=#3b48cc;strokeWidth=0.8;lucidId=GWfvRAXIjcSH;" vertex="1" parent="1">
          <mxGeometry x="917" y="100" width="50" height="49" as="geometry" />
        </mxCell>
        <mxCell id="JmXkQyWFA_XHJxAdcba5-9" value="" style="strokeColor=none;fillColor=none;whiteSpace=wrap;fontSize=16.7;fontColor=#3a414a;spacing=3.8;strokeOpacity=100;rounded=1;absoluteArcSize=1;arcSize=9;strokeWidth=0.8;html=1;" vertex="1" parent="1">
          <mxGeometry x="390" y="270" width="67.75999999999999" height="89" as="geometry" />
        </mxCell>
        <mxCell id="JmXkQyWFA_XHJxAdcba5-10" value="" style="shape=curlyBracket;rounded=1;flipH=1;whiteSpace=wrap;fontSize=16.7;fontColor=#3a414a;spacing=3.8;strokeColor=#3a414a;strokeOpacity=100;strokeWidth=0.8;" vertex="1" parent="JmXkQyWFA_XHJxAdcba5-9">
          <mxGeometry width="11.125" height="89" as="geometry" />
        </mxCell>
        <mxCell id="JmXkQyWFA_XHJxAdcba5-11" value="Data Mapping" style="strokeColor=none;fillColor=none;whiteSpace=wrap;fontSize=16.7;fontColor=#3a414a;spacing=3.8;strokeOpacity=100;rounded=1;absoluteArcSize=1;arcSize=9;strokeWidth=0.8;" vertex="1" parent="JmXkQyWFA_XHJxAdcba5-9">
          <mxGeometry x="28.88499999999999" width="38.875" height="89" as="geometry" />
        </mxCell>
        <mxCell id="JmXkQyWFA_XHJxAdcba5-12" value="&lt;font style=&quot;font-size: 9px;&quot;&gt;Secured Agent&lt;/font&gt;" style="html=1;overflow=block;blockSpacing=1;whiteSpace=wrap;shape=mxgraph.aws4.agent2;labelPosition=center;verticalLabelPosition=bottom;align=center;verticalAlign=top;pointerEvents=1;fontSize=15;fontColor=#3a414a;spacing=0;strokeColor=#3a414a;strokeOpacity=100;rounded=1;absoluteArcSize=1;arcSize=9;fillColor=#1c7b68;strokeWidth=0.8;lucidId=V0fvz383fF~9;" vertex="1" parent="1">
          <mxGeometry x="370" y="108.5" width="38" height="32" as="geometry" />
        </mxCell>
        <mxCell id="JmXkQyWFA_XHJxAdcba5-13" value="Customers" style="html=1;overflow=block;blockSpacing=1;whiteSpace=wrap;fontSize=13;spacing=0;strokeColor=#3a414a;strokeOpacity=100;rounded=1;absoluteArcSize=1;arcSize=9;fillColor=#0078d4;strokeWidth=0.8;lucidId=Y6fv7KWgEG-H;" vertex="1" parent="1">
          <mxGeometry x="700" y="285" width="68" height="46" as="geometry" />
        </mxCell>
        <mxCell id="JmXkQyWFA_XHJxAdcba5-14" value="" style="html=1;jettySize=18;whiteSpace=wrap;fontSize=13;strokeColor=#b0084d;strokeOpacity=100;strokeWidth=0.8;rounded=1;arcSize=12;edgeStyle=orthogonalEdgeStyle;startArrow=none;endArrow=block;endFill=1;exitX=1.002;exitY=0.5;exitPerimeter=0;entryX=-0.003;entryY=0.5;entryPerimeter=0;lucidId=pPkv3rIOr2aS;" edge="1" parent="1" source="JmXkQyWFA_XHJxAdcba5-20" target="JmXkQyWFA_XHJxAdcba5-1">
          <mxGeometry width="100" height="100" relative="1" as="geometry">
            <Array as="points">
              <mxPoint x="120" y="231" />
            </Array>
          </mxGeometry>
        </mxCell>
        <mxCell id="JmXkQyWFA_XHJxAdcba5-15" value="" style="html=1;overflow=block;blockSpacing=1;whiteSpace=wrap;shape=image;fontSize=13;spacing=3.8;strokeColor=none;strokeOpacity=100;strokeWidth=0;image=https://images.lucid.app/images/98843362-60f4-46ee-85de-753dc02aa09e/content;lucidId=MXlvsj6demjr;" vertex="1" parent="1">
          <mxGeometry x="763" y="272" width="72" height="72" as="geometry" />
        </mxCell>
        <mxCell id="JmXkQyWFA_XHJxAdcba5-16" value="Vehicle" style="html=1;overflow=block;blockSpacing=1;whiteSpace=wrap;fontSize=15;fontColor=#3a414a;spacing=3.8;strokeOpacity=0;fillOpacity=0;rounded=1;absoluteArcSize=1;arcSize=9;fillColor=#ffffff;strokeWidth=0.8;lucidId=9XlvQF2a5Y8r;" vertex="1" parent="1">
          <mxGeometry x="732" y="328" width="103" height="27" as="geometry" />
        </mxCell>
        <mxCell id="JmXkQyWFA_XHJxAdcba5-17" value="" style="html=1;jettySize=18;whiteSpace=wrap;fontSize=13;strokeColor=#3a414a;strokeOpacity=100;strokeWidth=0.8;rounded=1;arcSize=12;edgeStyle=orthogonalEdgeStyle;startArrow=none;endArrow=block;endFill=1;exitX=0.5;exitY=0.997;exitPerimeter=0;entryX=0.5;entryY=1;entryPerimeter=0;lucidId=~YlvwF8hCNBU;" edge="1" parent="1" source="JmXkQyWFA_XHJxAdcba5-13" target="JmXkQyWFA_XHJxAdcba5-16">
          <mxGeometry width="100" height="100" relative="1" as="geometry">
            <Array as="points" />
          </mxGeometry>
        </mxCell>
        <mxCell id="JmXkQyWFA_XHJxAdcba5-18" value="Relationship" style="text;html=1;resizable=0;labelBackgroundColor=default;align=center;verticalAlign=middle;fontStyle=1;fontColor=#333333;fontSize=13.3;" vertex="1" parent="JmXkQyWFA_XHJxAdcba5-17">
          <mxGeometry relative="1" as="geometry" />
        </mxCell>
        <mxCell id="JmXkQyWFA_XHJxAdcba5-19" style="edgeStyle=orthogonalEdgeStyle;rounded=0;orthogonalLoop=1;jettySize=auto;html=1;fontSize=13;" edge="1" parent="1" source="JmXkQyWFA_XHJxAdcba5-27" target="JmXkQyWFA_XHJxAdcba5-20">
          <mxGeometry relative="1" as="geometry">
            <mxPoint x="580" y="425" as="sourcePoint" />
            <Array as="points">
              <mxPoint x="560" y="424" />
              <mxPoint x="560" y="424" />
            </Array>
          </mxGeometry>
        </mxCell>
        <mxCell id="JmXkQyWFA_XHJxAdcba5-20" value="Downstream Service by MSD team" style="rounded=0;whiteSpace=wrap;html=1;fontSize=13;fillColor=#dae8fc;strokeColor=#6c8ebf;" vertex="1" parent="1">
          <mxGeometry x="288.88" y="391.75" width="130" height="65" as="geometry" />
        </mxCell>
        <mxCell id="JmXkQyWFA_XHJxAdcba5-21" value="&lt;font style=&quot;font-size: 13px;&quot;&gt;Attributes to ingest&lt;/font&gt;" style="html=1;overflow=block;blockSpacing=1;whiteSpace=wrap;shape=mxgraph.aws4.attributes;verticalLabelPosition=bottom;align=center;verticalAlign=top;pointerEvents=1;fontSize=16.7;fontColor=#3a414a;spacing=0;strokeColor=#3a414a;strokeOpacity=100;rounded=1;absoluteArcSize=1;arcSize=9;fillColor=#3b48cc;strokeWidth=0.8;lucidId=bUlvYQVKywe3;" vertex="1" parent="1">
          <mxGeometry x="326.5" y="272" width="50" height="49" as="geometry" />
        </mxCell>
        <mxCell id="JmXkQyWFA_XHJxAdcba5-22" value="" style="shape=curlyBracket;whiteSpace=wrap;html=1;rounded=1;labelPosition=left;verticalLabelPosition=middle;align=right;verticalAlign=middle;fontSize=12;" vertex="1" parent="1">
          <mxGeometry x="880" y="94" width="20" height="61" as="geometry" />
        </mxCell>
        <mxCell id="JmXkQyWFA_XHJxAdcba5-23" value="Data Mapping" style="strokeColor=none;fillColor=none;whiteSpace=wrap;fontSize=16.7;fontColor=#3a414a;spacing=3.8;strokeOpacity=100;rounded=1;absoluteArcSize=1;arcSize=9;strokeWidth=0.8;" vertex="1" parent="1">
          <mxGeometry x="825.125" y="80" width="38.875" height="89" as="geometry" />
        </mxCell>
        <mxCell id="JmXkQyWFA_XHJxAdcba5-24" style="edgeStyle=orthogonalEdgeStyle;rounded=0;orthogonalLoop=1;jettySize=auto;html=1;exitX=0.5;exitY=1;exitDx=0;exitDy=0;" edge="1" parent="1" target="JmXkQyWFA_XHJxAdcba5-27">
          <mxGeometry relative="1" as="geometry">
            <Array as="points">
              <mxPoint x="1027" y="424" />
            </Array>
            <mxPoint x="997" y="424" as="targetPoint" />
            <mxPoint x="1027" y="330" as="sourcePoint" />
          </mxGeometry>
        </mxCell>
        <mxCell id="JmXkQyWFA_XHJxAdcba5-25" value="~ How many total records daily ?&lt;br&gt;~ How many new records daily ?" style="text;html=1;strokeColor=none;fillColor=none;align=left;verticalAlign=middle;whiteSpace=wrap;rounded=0;fontStyle=1" vertex="1" parent="1">
          <mxGeometry x="50" y="440" width="200" height="30" as="geometry" />
        </mxCell>
        <mxCell id="JmXkQyWFA_XHJxAdcba5-26" value="Business Event" style="overflow=block;blockSpacing=1;whiteSpace=wrap;aspect=fixed;html=1;points=[];align=center;verticalAlign=top;image;image=img/lib/mscae/Data_Box.svg;fontSize=13;spacing=0;strokeColor=#3a414a;strokeOpacity=100;rounded=1;absoluteArcSize=1;arcSize=9;fillColor=#45ADD2;strokeWidth=0.8;lucidId=bUlvEU.89sOu;" vertex="1" parent="1">
          <mxGeometry x="987" y="261" width="69.07" height="66" as="geometry" />
        </mxCell>
        <mxCell id="JmXkQyWFA_XHJxAdcba5-27" value="SQS" style="outlineConnect=0;dashed=0;verticalLabelPosition=bottom;verticalAlign=top;align=center;html=1;shape=mxgraph.aws3.sqs;fillColor=#D9A741;gradientColor=none;" vertex="1" parent="1">
          <mxGeometry x="600" y="387" width="70" height="83" as="geometry" />
        </mxCell>
        <mxCell id="JmXkQyWFA_XHJxAdcba5-28" value="" style="endArrow=none;html=1;rounded=0;" edge="1" parent="1">
          <mxGeometry width="50" height="50" relative="1" as="geometry">
            <mxPoint x="99.5" y="116" as="sourcePoint" />
            <mxPoint x="159.5" y="116" as="targetPoint" />
          </mxGeometry>
        </mxCell>
        <mxCell id="JmXkQyWFA_XHJxAdcba5-29" value="Near real-time" style="text;html=1;strokeColor=none;fillColor=none;align=center;verticalAlign=middle;whiteSpace=wrap;rounded=0;" vertex="1" parent="1">
          <mxGeometry x="160.5" y="100" width="99.5" height="30" as="geometry" />
        </mxCell>
        <mxCell id="JmXkQyWFA_XHJxAdcba5-30" value="Create/Update" style="text;html=1;strokeColor=none;fillColor=none;align=center;verticalAlign=middle;whiteSpace=wrap;rounded=0;" vertex="1" parent="1">
          <mxGeometry x="326.5" y="231" width="120" height="30" as="geometry" />
        </mxCell>
        <mxCell id="JmXkQyWFA_XHJxAdcba5-31" value="App&lt;br&gt;Connector" style="text;html=1;strokeColor=none;fillColor=none;align=center;verticalAlign=middle;whiteSpace=wrap;rounded=0;" vertex="1" parent="1">
          <mxGeometry x="520" y="149" width="60" height="30" as="geometry" />
        </mxCell>
        <mxCell id="JmXkQyWFA_XHJxAdcba5-32" style="edgeStyle=orthogonalEdgeStyle;rounded=0;orthogonalLoop=1;jettySize=auto;html=1;" edge="1" parent="1" source="JmXkQyWFA_XHJxAdcba5-33" target="JmXkQyWFA_XHJxAdcba5-3">
          <mxGeometry relative="1" as="geometry" />
        </mxCell>
        <mxCell id="JmXkQyWFA_XHJxAdcba5-33" value="SQS" style="outlineConnect=0;dashed=0;verticalLabelPosition=bottom;verticalAlign=top;align=center;html=1;shape=mxgraph.aws3.sqs;fillColor=#D9A741;gradientColor=none;" vertex="1" parent="1">
          <mxGeometry x="373" y="179.5" width="27" height="29.5" as="geometry" />
        </mxCell>
        <mxCell id="JmXkQyWFA_XHJxAdcba5-34" value="&lt;ul&gt;&lt;li&gt;Person payload with consent&lt;/li&gt;&lt;li&gt;Vehicle Payload&lt;/li&gt;&lt;li&gt;Relationship payload&lt;/li&gt;&lt;/ul&gt;" style="shape=document;whiteSpace=wrap;html=1;boundedLbl=1;align=left;fillColor=#ffe6cc;strokeColor=#d79b00;" vertex="1" parent="1">
          <mxGeometry x="434" y="84.5" width="186" height="80" as="geometry" />
        </mxCell>
        <mxCell id="JmXkQyWFA_XHJxAdcba5-35" value="&lt;ul&gt;&lt;li&gt;Person payload with consent with Cross reference&lt;/li&gt;&lt;li&gt;Vehicle Payload&lt;/li&gt;&lt;li&gt;Relationship payload&lt;/li&gt;&lt;/ul&gt;" style="shape=document;whiteSpace=wrap;html=1;boundedLbl=1;align=left;fillColor=#ffe6cc;strokeColor=#d79b00;" vertex="1" parent="1">
          <mxGeometry x="706" y="456.75" width="244" height="80" as="geometry" />
        </mxCell>
      </root>
    </mxGraphModel>
  </diagram>
</mxfile>
